<svg width="100" height="84" viewBox="0 0 100 84" fill="none" xmlns="http://www.w3.org/2000/svg">
<path d="M42.053 18.0245C41.9083 18.0019 41.756 17.9336 41.6227 17.8387C41.1389 17.474 41.0505 16.8081 41.4152 16.3243C45.6584 10.7055 50.0779 5.99585 55.2827 5.12118C57.3372 4.77591 59.3244 5.28698 60.8747 6.41133C62.4479 7.53184 63.5805 9.24281 63.9219 11.2745C64.2326 13.1236 63.9873 14.5966 63.2508 15.941C62.799 16.7446 62.1721 17.4837 61.3549 18.2078C62.1126 18.5265 62.7867 18.9061 63.3733 19.324C64.4704 20.1254 65.2291 21.1481 65.6952 22.5251C65.8863 23.1033 65.5903 23.7164 65.0121 23.9074C64.4796 24.0908 63.9198 23.8328 63.6718 23.3346C60.7091 24.701 53.1672 28.0105 47.2547 29.0041C41.0227 30.0514 41.6462 21.1913 42.053 18.0245Z" fill="#494949"/>
<path d="M34.0872 17.5557C34.59 17.8937 34.724 18.5519 34.386 19.0547C34.2189 19.3175 33.9413 19.4815 33.6446 19.5314C35.0984 22.4559 38.4696 30.5039 32.2603 31.5473C26.5762 32.5026 18.7817 31.9346 15.2953 31.5816C15.1894 32.0689 14.7599 32.4462 14.2423 32.4393C13.6335 32.4477 13.1533 31.9651 13.1449 31.3562C13.1353 29.9025 13.5219 28.7108 14.2929 27.5719C14.7068 26.9625 15.2236 26.4062 15.8356 25.8574C14.8494 25.4363 13.9925 24.9465 13.299 24.3119C12.1408 23.286 11.4502 21.9702 11.1394 20.1211C10.798 18.0894 11.3052 16.0794 12.4296 14.5291C13.5501 12.9559 15.2611 11.8233 17.2928 11.4819C22.5204 10.6034 28.2404 13.6325 34.0872 17.5557Z" fill="#494949"/>
<path d="M37.0042 27.3703C37.092 27.6137 37.0696 27.8992 36.9481 28.1543C36.6863 28.6912 36.0473 28.9394 35.5103 28.6776C34.4403 28.1767 33.4917 27.4207 32.7674 26.4627C32.0735 25.5465 31.585 24.4549 31.3816 23.245C31.044 21.2362 31.5628 19.2946 32.6453 17.7748C33.7278 16.2549 35.416 15.1262 37.402 14.7924C39.4109 14.4548 41.3524 14.9736 42.8723 16.0561C44.3921 17.1386 45.5209 18.8268 45.8546 20.8128C46.0157 21.7716 45.9904 22.7382 45.7671 23.6443C45.5515 24.5959 45.1568 25.4603 44.6289 26.2298C44.2871 26.7097 43.6061 26.8476 43.1261 26.5058C43.0194 26.4298 42.9089 26.331 42.8441 26.2245L37.0042 27.3703Z" fill="#C6C6C6"/>
<path d="M86.4784 31.8015C87.0719 31.7018 87.6319 32.1006 87.7316 32.6941L96.2789 83.555C96.3787 84.1486 95.9798 84.7085 95.3863 84.8083L5.46664 99.9194C4.87311 100.019 4.31316 99.6204 4.21342 99.0268L-4.33385 48.1659C-4.4336 47.5724 -4.03477 47.0125 -3.44124 46.9127C-2.84771 46.813 85.8849 31.9013 86.4784 31.8015Z" fill="#AFAFAF"/>
<path d="M86.4784 31.8015C87.0719 31.7018 87.6319 32.1006 87.7316 32.6941L88.2726 35.9129L-3.79294 51.3847L-4.33385 48.1659C-4.4336 47.5724 -4.03477 47.0125 -3.44124 46.9127C-2.84771 46.813 85.8849 31.9013 86.4784 31.8015Z" fill="#959595"/>
<path d="M90.1262 33.395L-6.34511 49.6072C-6.93864 49.7069 -7.4986 49.3081 -7.59834 48.7146L-9.83874 35.383C-9.93848 34.7894 -9.53965 34.2295 -8.94612 34.1298L87.5252 17.9176C88.1187 17.8178 88.6787 18.2166 88.7784 18.8102L91.015 32.1189C91.1186 32.7353 90.7197 33.2952 90.1262 33.395Z" fill="#C5C5C5"/>
<path d="M49.0824 24.378L29.4731 27.6733L32.0703 43.1279L51.6796 39.8325L49.0824 24.378Z" fill="#C5C5C5"/>
<path d="M29.4731 27.6733L49.0824 24.378C52.7384 46.1331 56.3906 67.8654 60.0466 89.6205C60.1463 90.214 59.7475 90.774 59.154 90.8737C58.7431 90.9428 58.3394 90.7759 58.1221 90.4603L48.1702 78.8707L42.5192 93.1528C42.3069 93.7049 41.6717 93.976 41.1196 93.7636C40.7427 93.6157 40.5025 93.304 40.4411 92.9387C36.7851 71.1836 33.1291 49.4285 29.4731 27.6733Z" fill="#656565"/>
<path d="M21.7082 62.8965C21.8752 62.6336 22.0423 62.3708 22.2399 62.1499C22.8517 61.4602 23.6275 61.0482 24.7004 60.8679C25.8874 60.6684 27.0409 60.9675 27.9703 61.6094C28.8769 62.2551 29.5405 63.2703 29.7399 64.4573C30.0584 66.352 29.475 68.3279 28.4045 70.3387C27.4139 72.2656 26.0465 74.1854 24.679 76.1053C24.3372 76.5852 23.6524 76.7003 23.1724 76.3585C21.2526 74.9911 19.3327 73.6237 17.7666 72.1264C16.1167 70.5493 14.9195 68.8727 14.6049 67.0008C14.4055 65.8137 14.7007 64.6374 15.3464 63.7308C15.9921 62.8242 17.0073 62.1607 18.1944 61.9612C19.701 61.708 20.7404 62.0263 21.7082 62.8965Z" fill="#656565"/>
<path d="M67.9575 55.1241C68.1246 54.8613 68.2917 54.5984 68.4893 54.3775C69.1011 53.6878 69.8768 53.2758 70.9498 53.0955C72.1368 52.896 73.3131 53.1912 74.2197 53.837C75.1263 54.4827 75.7898 55.4979 75.9893 56.6849C76.3077 58.5797 75.7243 60.5555 74.6539 62.5663C73.6632 64.4932 72.2958 66.413 70.9284 68.3329C70.5866 68.8128 69.9018 68.9279 69.4218 68.5861C67.502 67.2187 65.5821 65.8513 64.016 64.354C62.3661 62.7769 61.1461 61.1041 60.8315 59.2322C60.632 58.0452 60.9273 56.8689 61.573 55.9623C62.2187 55.0557 63.2339 54.3922 64.421 54.1927C65.9733 53.9318 67.0126 54.2501 67.9575 55.1241Z" fill="#656565"/>
</svg>
