<svg width="24" height="21" viewBox="0 0 24 21" fill="none" xmlns="http://www.w3.org/2000/svg">
<path d="M12.9721 2.53327C12.9388 2.52216 12.9055 2.49994 12.8777 2.47216C12.7777 2.3666 12.7832 2.20549 12.8888 2.10549C14.1166 0.944382 15.3499 0.00549316 16.6166 0.00549316C17.1166 0.00549316 17.5666 0.205493 17.8888 0.533271C18.2166 0.861049 18.4166 1.31105 18.4166 1.80549C18.4166 2.25549 18.2999 2.59438 18.0721 2.88327C17.9332 3.05549 17.7555 3.20549 17.5332 3.34438C17.6999 3.44994 17.8444 3.5666 17.9666 3.68883C18.1944 3.92216 18.3332 4.19438 18.3888 4.53883C18.411 4.68327 18.3166 4.8166 18.1721 4.83883C18.0388 4.86105 17.9166 4.77772 17.8777 4.64994C17.1221 4.85549 15.2055 5.33883 13.7666 5.33883C12.2499 5.33883 12.7499 3.2666 12.9721 2.53327Z" fill="#494949"/>
<path d="M11.1056 2.10556C11.2112 2.20556 11.2167 2.36667 11.1167 2.47222C11.0667 2.52778 10.9945 2.55556 10.9223 2.55556C11.15 3.30556 11.6278 5.34444 10.1167 5.34444C8.73338 5.34444 6.91115 4.9 6.10004 4.67778C6.0556 4.78889 5.93893 4.86111 5.81671 4.83889C5.67227 4.81667 5.57782 4.68333 5.60004 4.53889C5.6556 4.19444 5.79449 3.92778 6.02227 3.68889C6.14449 3.56111 6.28893 3.45 6.4556 3.34444C6.23893 3.20556 6.0556 3.05556 5.91671 2.87778C5.68338 2.58889 5.57227 2.25 5.57227 1.8C5.57227 1.30556 5.77227 0.85 6.10004 0.527778C6.42782 0.2 6.87782 0 7.37227 0C8.64449 0 9.87782 0.944445 11.1056 2.10556Z" fill="#494949"/>
<path d="M11.4054 4.54436C11.4165 4.60547 11.3999 4.67214 11.361 4.7277C11.2777 4.84436 11.1165 4.8777 10.9999 4.79436C10.7665 4.63325 10.5721 4.41659 10.4388 4.16103C10.311 3.91659 10.2388 3.63881 10.2388 3.34436C10.2388 2.85547 10.4388 2.41659 10.7554 2.09992C11.0721 1.78325 11.5165 1.58325 11.9999 1.58325C12.4888 1.58325 12.9277 1.78325 13.2443 2.09992C13.561 2.41659 13.761 2.86103 13.761 3.34436C13.761 3.5777 13.7165 3.80547 13.6277 4.01103C13.5388 4.2277 13.411 4.41659 13.2554 4.5777C13.1554 4.6777 12.9888 4.68325 12.8888 4.58325C12.8665 4.56103 12.8443 4.53325 12.8332 4.50547L11.4054 4.54436Z" fill="#C6C6C6"/>
<path d="M22.9389 7.56104C23.0833 7.56104 23.2 7.6777 23.2 7.82215V20.1999C23.2 20.3444 23.0833 20.461 22.9389 20.461H1.05554C0.9111 20.461 0.794434 20.3444 0.794434 20.1999V7.82215C0.794434 7.6777 0.9111 7.56104 1.05554 7.56104C1.19999 7.56104 22.7944 7.56104 22.9389 7.56104Z" fill="#AFAFAF"/>
<path d="M22.9389 7.56104C23.0833 7.56104 23.2 7.6777 23.2 7.82215V8.60548H0.794434V7.82215C0.794434 7.6777 0.9111 7.56104 1.05554 7.56104C1.19999 7.56104 22.7944 7.56104 22.9389 7.56104Z" fill="#959595"/>
<path d="M23.7389 8.08332H0.261111C0.116667 8.08332 0 7.96665 0 7.82221V4.57776C0 4.43332 0.116667 4.31665 0.261111 4.31665H23.7389C23.8833 4.31665 24 4.43332 24 4.57776V7.81665C24 7.96665 23.8833 8.08332 23.7389 8.08332Z" fill="#C5C5C5"/>
<path d="M14.3836 4.31665H9.61133V8.07776H14.3836V4.31665Z" fill="#C5C5C5"/>
<path d="M9.61133 4.31665H14.3836C14.3836 9.61109 14.3836 14.9 14.3836 20.1944C14.3836 20.3389 14.2669 20.4555 14.1224 20.4555C14.0224 20.4555 13.9336 20.4 13.8947 20.3166L12.0002 17.1778L10.0947 20.3333C10.0224 20.4555 9.86133 20.4944 9.73911 20.4222C9.65577 20.3722 9.61133 20.2889 9.61133 20.2C9.61133 14.9055 9.61133 9.61109 9.61133 4.31665Z" fill="#656565"/>
<path d="M6.37228 12.3444C6.42228 12.2888 6.47228 12.2333 6.52783 12.1888C6.70005 12.0499 6.90005 11.9833 7.16116 11.9833C7.45005 11.9833 7.71117 12.0999 7.90561 12.2888C8.0945 12.4777 8.21117 12.7444 8.21117 13.0333C8.21117 13.4944 7.9945 13.9388 7.66116 14.3722C7.35005 14.7888 6.95005 15.1888 6.55005 15.5888C6.45005 15.6888 6.28339 15.6888 6.18339 15.5888C5.78339 15.1888 5.38339 14.7888 5.07228 14.3722C4.7445 13.9333 4.52783 13.4888 4.52783 13.0333C4.52783 12.7444 4.6445 12.4777 4.83339 12.2888C5.02228 12.0999 5.28894 11.9833 5.57783 11.9833C5.9445 11.9833 6.17783 12.0999 6.37228 12.3444Z" fill="#656565"/>
<path d="M17.6278 12.3444C17.6778 12.2888 17.7278 12.2333 17.7834 12.1888C17.9556 12.0499 18.1556 11.9833 18.4167 11.9833C18.7056 11.9833 18.9723 12.0999 19.1612 12.2888C19.3501 12.4777 19.4667 12.7444 19.4667 13.0333C19.4667 13.4944 19.2501 13.9388 18.9167 14.3722C18.6056 14.7888 18.2056 15.1888 17.8056 15.5888C17.7056 15.6888 17.5389 15.6888 17.4389 15.5888C17.0389 15.1888 16.6389 14.7888 16.3278 14.3722C16.0001 13.9333 15.7778 13.4888 15.7778 13.0333C15.7778 12.7444 15.8945 12.4777 16.0834 12.2888C16.2723 12.0999 16.5389 11.9833 16.8278 11.9833C17.2056 11.9833 17.4389 12.0999 17.6278 12.3444Z" fill="#656565"/>
</svg>
