<svg width="136" height="125" viewBox="0 0 136 125" fill="none" xmlns="http://www.w3.org/2000/svg">
<path d="M152.346 20.7216L61.4835 1.90351C56.4096 0.852684 51.3888 4.14224 50.2718 9.26287L9.90279 194.313C8.78803 199.423 11.9992 204.428 17.0731 205.479L107.936 224.297C113.015 225.349 118.043 222.05 119.158 216.94L159.527 31.8902C160.644 26.7695 157.425 21.7735 152.346 20.7216ZM114.66 210.029C113.598 214.899 109.051 218.076 104.504 217.134L23.2143 200.299C18.6564 199.355 15.8288 194.651 16.8913 189.78L54.4821 17.4653C56.6467 7.54313 60.4394 7.82287 64.9973 8.76684L81.2778 12.1386C82.2238 12.3345 82.7658 13.5583 82.4781 14.877L82.354 15.446C81.68 18.5354 83.3869 18.9 85.4885 19.3352L123.145 27.1341C125.263 27.5727 126.958 27.9127 127.632 24.8233L127.756 24.2543C128.044 22.9356 129.039 22.0302 130.001 22.2294L146.287 25.6023C150.834 26.5441 154.234 28.6264 152.251 37.7138L114.66 210.029Z" fill="#444444"/>
<path d="M110.093 20.5986L99.7804 18.4532C99.4285 18.38 99.2051 18.0376 99.281 17.688C99.357 17.3383 99.7039 17.1146 100.055 17.1876L110.368 19.333C110.72 19.4062 110.943 19.7486 110.867 20.0983C110.792 20.4479 110.445 20.6718 110.093 20.5986Z" fill="white"/>
<path d="M60.9801 33.4724L58.681 30.1973L62.1534 28.1134L62.4978 28.6784L59.6384 30.3949L61.5315 33.0922L60.9801 33.4724Z" fill="#282828"/>
<path d="M77.2844 15.4879C77.2202 15.5292 77.1564 15.5706 77.0922 15.6118C77.056 15.6353 77.0198 15.6593 76.983 15.6832C76.6494 15.1857 76.1925 14.8629 75.6018 14.7413C75.0111 14.6197 74.4588 14.7341 73.9408 15.0591C73.9191 15.0243 73.8977 14.9884 73.8751 14.9529C73.8348 14.8901 73.7945 14.8273 73.7535 14.7649C73.7527 14.7636 73.7507 14.7626 73.7493 14.7612C73.7495 14.7601 73.7499 14.7585 73.7501 14.7574C73.7546 14.755 73.7595 14.7532 73.7635 14.7501C73.8427 14.7051 73.9208 14.6571 74.0017 14.6147C74.169 14.5272 74.3453 14.4629 74.5274 14.4161C74.7429 14.361 74.9622 14.332 75.1841 14.3372C75.2889 14.3396 75.3939 14.3512 75.4985 14.3598C75.5339 14.3626 75.7599 14.4085 75.7668 14.4105C75.8351 14.4302 75.904 14.4472 75.9719 14.469C76.1597 14.5296 76.3366 14.6144 76.5037 14.7179C76.6247 14.7928 76.7382 14.8786 76.8443 14.9729C76.9564 15.073 77.0593 15.1813 77.1509 15.3008C77.1968 15.3608 77.2401 15.4231 77.2846 15.4845C77.2846 15.4845 77.2848 15.4863 77.2844 15.4879Z" fill="#282828"/>
<path d="M74.3381 15.6466C74.2727 15.5466 74.2091 15.4493 74.1427 15.3486C74.4877 15.1292 74.8622 15.0215 75.2684 15.0495C75.8753 15.0912 76.3427 15.3739 76.6832 15.8674C76.5801 15.9344 76.4797 15.9991 76.3781 16.0641C76.1562 15.7331 75.8487 15.5154 75.4509 15.4341C75.0536 15.3529 74.6823 15.4304 74.3381 15.6466Z" fill="#282828"/>
<path d="M76.0781 16.256C75.9777 16.3206 75.8778 16.3859 75.776 16.4519C75.6633 16.2835 75.5056 16.1709 75.3015 16.1289C75.0972 16.0875 74.907 16.128 74.7313 16.2383C74.6665 16.1386 74.6022 16.0396 74.5382 15.9411C75.0219 15.6104 75.7392 15.723 76.0781 16.256Z" fill="#282828"/>
<path d="M75.431 16.6091C75.4041 16.7317 75.2823 16.8104 75.1587 16.7849C75.0357 16.7596 74.9575 16.6399 74.9845 16.5173C75.0113 16.3951 75.1332 16.316 75.2562 16.3413C75.3792 16.3671 75.4579 16.487 75.431 16.6091Z" fill="#282828"/>
<path d="M61.7817 12.7417C61.8594 12.3868 62.2128 12.1595 62.5705 12.2332C62.9286 12.3071 63.156 12.6547 63.0784 13.0091C63.0006 13.364 62.6472 13.5913 62.2891 13.5175C61.9313 13.4443 61.7039 13.0966 61.7817 12.7417Z" fill="#282828"/>
<path d="M63.8315 13.1702C63.9092 12.8153 64.2626 12.588 64.6203 12.6617C64.9779 12.7355 65.2053 13.0831 65.1276 13.4375C65.0499 13.7924 64.6965 14.0197 64.3389 13.9459C63.9812 13.8722 63.7537 13.5251 63.8315 13.1702Z" fill="#282828"/>
<path d="M65.8813 13.5989C65.959 13.244 66.3124 13.0167 66.6701 13.0904C67.0283 13.1643 67.2556 13.5119 67.178 13.8663C67.1002 14.2212 66.7469 14.4485 66.3887 14.3747C66.0309 14.3014 65.8035 13.9538 65.8813 13.5989Z" fill="#282828"/>
<path d="M67.9311 14.0274C68.0088 13.6725 68.3622 13.4451 68.7199 13.5189C69.0781 13.5927 69.3049 13.9403 69.2273 14.2946C69.1495 14.6495 68.7961 14.8769 68.4385 14.8031C68.0807 14.7299 67.8533 14.3823 67.9311 14.0274Z" fill="#282828"/>
<path d="M69.9809 14.4558C70.0586 14.1009 70.412 13.8736 70.7697 13.9474C71.1279 14.0212 71.3547 14.3687 71.2771 14.7231C71.1993 15.078 70.8459 15.3053 70.4883 15.2316C70.1305 15.1584 69.9031 14.8107 69.9809 14.4558Z" fill="#282828"/>
<path d="M47.38 118.087L99.9987 128.886L104.824 106.969L52.2051 96.1699L47.38 118.087Z" fill="#444444"/>
<path d="M99.9906 110.096L55.2822 100.761L55.1905 101.185L99.8988 110.52L99.9906 110.096Z" fill="white"/>
<path d="M86.603 109.623L54.8013 102.987L54.7095 103.41L86.5113 110.047L86.603 109.623Z" fill="white"/>
<path d="M93.4349 115.703L53.8394 107.438L53.7476 107.862L93.3431 116.127L93.4349 115.703Z" fill="white"/>
<path d="M98.0668 118.997L53.3584 109.663L53.2666 110.087L97.975 119.421L98.0668 118.997Z" fill="white"/>
<path d="M97.5858 121.223L52.8774 111.888L52.7857 112.313L97.4941 121.647L97.5858 121.223Z" fill="white"/>
<path d="M79.8816 119.848L52.3965 114.114L52.3047 114.537L79.7899 120.272L79.8816 119.848Z" fill="white"/>
<path d="M103.441 113.634L104.86 107.198L112.675 108.8L103.441 113.634Z" fill="#444444"/>
<path d="M134.583 64.5248L81.936 53.6985L77.8716 72.1983L130.518 83.0246L134.583 64.5248Z" fill="#7D7D7D"/>
<path d="M80.4088 60.0951L81.8263 53.6604L74.0093 52.0571L80.4088 60.0951Z" fill="#7D7D7D"/>
<path d="M119.518 65.0983L85.2021 57.9355L85.1105 58.3589L119.426 65.5216L119.518 65.0983Z" fill="white"/>
<path d="M129.43 69.4962L84.7212 60.1611L84.6296 60.5846L129.338 69.9197L129.43 69.4962Z" fill="white"/>
<path d="M128.949 71.7213L84.2402 62.3862L84.1486 62.8097L128.857 72.1448L128.949 71.7213Z" fill="white"/>
<path d="M123.544 72.9177L83.7593 64.6118L83.6677 65.0352L123.452 73.341L123.544 72.9177Z" fill="white"/>
<path d="M127.986 76.1725L83.2778 66.8374L83.1862 67.2609L127.895 76.596L127.986 76.1725Z" fill="white"/>
<path d="M111.267 75.0034L82.7969 69.0625L82.7052 69.4857L111.176 75.4266L111.267 75.0034Z" fill="white"/>
<path d="M129.988 85.8161L77.3101 74.9575L74.2984 88.6982L126.976 99.5568L129.988 85.8161Z" fill="#7D7D7D"/>
<path d="M125.204 88.508L80.6064 79.1948L80.5151 79.617L125.113 88.9301L125.204 88.508Z" fill="white"/>
<path d="M113.74 88.4374L80.1255 81.4199L80.0342 81.8419L113.649 88.8594L113.74 88.4374Z" fill="white"/>
<path d="M118.393 91.7361L79.645 83.6458L79.5537 84.0678L118.302 92.1582L118.393 91.7361Z" fill="white"/>
<path d="M105.058 91.2742L79.1641 85.8706L79.0727 86.2924L104.967 91.6961L105.058 91.2742Z" fill="white"/>
<path d="M75.8159 81.3536L77.2312 74.9216L69.4121 73.3162L75.8159 81.3536Z" fill="#7D7D7D"/>
<path d="M69.4747 62.8196C71.417 57.9754 69.0446 52.5453 64.1759 50.6911C59.3072 48.8368 53.7857 51.2606 51.8435 56.1048C49.9012 60.949 52.2735 66.3791 57.1423 68.2334C62.011 70.0876 67.5324 67.6638 69.4747 62.8196Z" fill="#7D7D7D"/>
<path d="M116.387 131.286C121.499 132.331 126.555 129.053 127.679 123.964C128.804 118.876 125.572 113.903 120.46 112.858C115.348 111.813 110.292 115.091 109.167 120.18C108.043 125.268 111.275 130.241 116.387 131.286Z" fill="#444444"/>
</svg>
