<svg width="22" height="20" viewBox="0 0 22 20" fill="none" xmlns="http://www.w3.org/2000/svg">
<path d="M11.3502 19.825C10.1002 19.825 8.92936 19.5875 7.8377 19.1125C6.74603 18.6375 5.79603 17.9959 4.9877 17.1875C4.17936 16.3792 3.5377 15.4292 3.0627 14.3375C2.5877 13.2459 2.3502 12.075 2.3502 10.825C2.3502 9.57505 2.5877 8.40422 3.0627 7.31255C3.5377 6.22088 4.17936 5.27088 4.9877 4.46255C5.79603 3.65422 6.74603 3.01255 7.8377 2.53755C8.92936 2.06255 10.1002 1.82505 11.3502 1.82505C12.6002 1.82505 13.771 2.06255 14.8627 2.53755C15.9544 3.01255 16.9044 3.65422 17.7127 4.46255C18.521 5.27088 19.1627 6.22088 19.6377 7.31255C20.1127 8.40422 20.3502 9.57505 20.3502 10.825C20.3502 12.075 20.1127 13.2459 19.6377 14.3375C19.1627 15.4292 18.521 16.3792 17.7127 17.1875C16.9044 17.9959 15.9544 18.6375 14.8627 19.1125C13.771 19.5875 12.6002 19.825 11.3502 19.825ZM14.1502 15.025L15.5502 13.625L12.3502 10.425V5.82505H10.3502V11.225L14.1502 15.025ZM4.9502 0.175049L6.3502 1.57505L2.1002 5.82505L0.700195 4.42505L4.9502 0.175049ZM17.7502 0.175049L22.0002 4.42505L20.6002 5.82505L16.3502 1.57505L17.7502 0.175049ZM11.3502 17.825C13.3002 17.825 14.9544 17.1459 16.3127 15.7875C17.671 14.4292 18.3502 12.775 18.3502 10.825C18.3502 8.87505 17.671 7.22088 16.3127 5.86255C14.9544 4.50422 13.3002 3.82505 11.3502 3.82505C9.4002 3.82505 7.74603 4.50422 6.3877 5.86255C5.02936 7.22088 4.3502 8.87505 4.3502 10.825C4.3502 12.775 5.02936 14.4292 6.3877 15.7875C7.74603 17.1459 9.4002 17.825 11.3502 17.825Z" fill="white"/>
</svg>
