<svg width="173" height="130" viewBox="0 0 173 130" fill="none" xmlns="http://www.w3.org/2000/svg">
<path d="M155.412 43.6252C157.18 44.9441 158.549 46.2659 159.49 47.5644C160.13 48.447 160.587 49.3388 160.848 50.2152C161.146 51.2199 161.195 52.2137 160.992 53.169L178.005 56.7853L139.44 238.22L9.74188 210.652L48.307 29.2171L76.0183 35.1073C76.2214 34.152 76.6699 33.2638 77.3514 32.4676C77.946 31.7729 78.7259 31.1439 79.6694 30.598C81.0579 29.7947 82.8463 29.1441 84.9977 28.6583L41.9644 19.5112L-0.000201844 216.939L145.783 247.926L187.747 50.4984L155.412 43.6252Z" fill="#444444"/>
<path d="M149.232 42.3119C145.551 40.3153 140.971 38.3736 135.761 36.6285L135.193 28.9955C134.742 22.9399 130.323 17.8998 124.352 16.6306C118.381 15.3614 112.295 18.1685 109.42 23.5174L105.796 30.2594C100.327 29.7344 95.3534 29.6455 91.1777 29.972C83.7321 30.5542 78.8236 32.4571 78.1633 35.5634L118.505 44.1384L158.848 52.7134C159.508 49.6071 155.797 45.8721 149.232 42.3119ZM123.264 21.7484C126.759 22.4911 128.992 25.9095 128.254 29.3837C127.516 32.8578 124.084 35.0721 120.59 34.3294C117.096 33.5867 114.862 30.1683 115.601 26.6942C116.339 23.2199 119.77 21.0057 123.264 21.7484Z" fill="#444444"/>
<path d="M52.1782 50.281C52.34 50.4752 52.6152 50.5202 52.8682 50.5487C53.0808 50.5727 52.9125 50.5584 53.5576 50.5535C54.0123 50.5501 53.9326 50.5473 54.2818 50.5809C54.3091 50.5835 54.3586 50.5974 54.385 50.5909C54.3807 50.5902 54.3769 50.5896 54.3728 50.589C54.5524 50.6074 54.9213 50.6329 55.4231 50.6174C58.1169 50.5341 59.9214 50.5499 61.355 50.5807C61.3048 50.6759 61.2557 50.7714 61.2049 50.8647C60.4267 52.2929 60.9862 51.1602 59.1026 55.078C56.769 59.9321 56.8107 59.8013 56.4172 60.6741C55.9504 61.7095 55.9021 61.5746 55.485 63.1242C55.4568 63.229 55.4187 63.3197 55.4692 63.431C55.5099 63.5206 55.5027 63.4871 55.4601 64.0306C55.4334 64.3716 56.1598 64.553 56.4306 64.2569C56.5178 64.1614 56.6051 64.066 56.6924 63.9705C56.7409 63.9174 56.7919 63.8417 56.8495 63.7986C56.8589 63.7915 56.9772 63.7241 56.9968 63.7091C57.1281 63.6089 57.1549 63.5355 57.5626 62.9107C58.0276 62.1981 59.0461 59.8147 59.5503 58.6703C62.4115 52.1775 62.172 52.7614 62.6882 51.4008C62.7854 51.1445 62.8975 50.8889 62.9834 50.6281C63.5768 50.6503 63.6542 50.6637 64.1724 50.6445C64.251 50.6531 64.3501 50.651 64.4326 50.6538C64.8584 50.6683 65.373 50.7149 65.9379 50.6552C65.8763 50.6568 65.8967 50.6334 65.9743 50.6365C66.0311 50.6388 66.0407 50.6401 66.0621 50.6356C66.0576 50.6366 66.0529 50.6378 66.0485 50.6388C66.6578 50.6549 66.9345 50.6881 67.3012 50.6836C67.8442 50.6768 68.1871 50.6449 70.4629 50.9312C70.7987 50.9735 71.1744 51.0243 71.4432 51.0634C72.3536 51.1956 72.4497 50.4775 71.8005 50.3225C71.1726 50.1726 70.5425 50.0326 69.91 49.9036C69.2942 49.778 68.6593 49.6994 68.0531 49.5351C67.7564 49.4546 67.4632 49.3846 67.1602 49.3321C66.8475 49.2778 66.5244 49.2456 66.2159 49.1721C66.0653 49.1362 65.919 49.0823 65.7686 49.0454C65.4834 48.9755 64.5589 48.8925 64.4705 48.8922C64.5592 48.9078 64.5622 48.9091 64.458 48.8921C64.3507 48.8912 64.3078 48.872 64.3141 48.8692C62.3334 48.5637 58.0669 48.7281 56.0457 48.9842C54.8268 49.1385 54.7785 49.1581 54.2616 49.2866C54.2343 49.2933 54.1242 49.3136 54.2589 49.2888C54.4449 49.2544 54.0626 49.3355 54.0429 49.3418C53.5755 49.4907 54.0745 49.3681 52.8314 49.6747C52.8662 49.6661 52.9479 49.6502 52.7855 49.6861C52.7159 49.7014 52.6518 49.7231 52.5864 49.7506C52.4922 49.7901 52.4006 49.8306 52.3165 49.8886C52.2034 49.9665 52.0629 50.1426 52.1782 50.281Z" fill="#444444"/>
<path d="M69.7928 57.4133C69.7501 57.4677 69.7159 57.53 69.6712 57.5827C69.644 57.6146 69.1577 58.0473 68.8601 58.7848C68.8123 58.9033 68.8774 58.9995 68.9716 59.062C67.8719 60.336 66.8743 62.2255 66.8731 63.91C66.8713 66.4892 69.4882 67.4491 71.7476 66.6379C72.819 66.2532 73.7705 65.5569 74.6197 64.8155C79.6236 60.4476 75.5869 55.2459 71.4072 56.5192C70.5309 56.7862 69.9144 57.2586 69.7928 57.4133ZM69.4365 65.8566C69.4461 65.8603 69.4581 65.865 69.4733 65.871C69.467 65.8685 69.4539 65.8634 69.4365 65.8566ZM70.5437 58.0959C70.6957 58.0585 70.9692 57.9209 71.1061 57.8469C71.2449 57.7927 71.3587 57.7367 71.7369 57.6372C72.0132 57.6052 72.0635 57.5661 72.5205 57.5989C72.6096 57.6053 72.6987 57.6119 72.7877 57.6189C72.681 57.5952 72.7431 57.6099 72.8104 57.6206C72.8271 57.6219 72.8958 57.6272 72.9091 57.6386C73.0503 57.6688 73.2651 57.7158 73.7235 57.9552C73.7192 57.9513 73.7153 57.9478 73.7107 57.9434C73.7291 57.9606 73.7524 57.9692 73.7835 57.9966C73.8479 58.0363 73.9575 58.0823 74.2313 58.3108C74.4866 58.5237 74.7452 58.8455 74.9274 59.1341C75.0549 59.3357 75.2479 59.7411 75.3499 60.2015C75.378 60.3283 75.4002 60.4509 75.4082 60.6824C75.4481 61.8398 74.7335 62.9113 73.9317 63.7365C73.2106 64.4787 72.34 65.1842 71.3583 65.6533C71.0447 65.8033 70.6892 65.8919 70.6489 65.9033C70.4578 65.9489 70.2689 65.9591 70.2157 65.9678C70.2165 65.9677 70.2171 65.9675 70.2179 65.9674C70.1666 65.9771 70.1003 65.9675 70.0483 65.9656C69.9096 65.9606 69.9058 65.9544 69.8282 65.9534C69.6903 65.9472 69.4274 65.8518 69.4102 65.8462C69.3247 65.8119 69.181 65.7519 69.12 65.7093C69.0448 65.6568 68.969 65.6065 68.8981 65.548C68.8938 65.5444 68.8183 65.472 68.8181 65.474C68.7755 65.4291 68.7343 65.3831 68.6958 65.3347C68.5399 65.1387 68.4882 65.0362 68.4304 64.9024C68.2423 64.4669 68.126 63.8641 68.3014 62.8894C68.4671 61.9681 68.866 60.8816 69.4606 59.9224C69.7914 59.389 70.0363 59.1155 70.1924 58.9242C70.2927 58.8011 70.3254 58.6938 70.3667 58.5445C70.3943 58.4445 70.3433 58.3695 70.2635 58.3233C70.2731 58.3152 70.5389 58.1008 70.5437 58.0959Z" fill="#444444"/>
<path d="M90.4571 70.4293C90.5154 70.3425 90.5737 70.2558 90.632 70.169C90.6973 70.0717 90.7951 70.0211 90.8638 69.9222C91.0915 69.5946 91.1157 69.5222 91.5334 68.2704C91.6194 68.0126 93.2268 62.7964 93.5862 61.5153C94.1138 59.6344 94.1967 59.4051 94.2452 58.9404C94.2812 58.5951 93.4792 58.4286 93.2746 58.8018C92.898 59.4889 92.6857 60.2765 92.4225 61.0138C92.158 61.7549 91.9089 62.5003 91.6617 63.2474C89.5125 69.744 89.6197 69.3303 89.7431 69.9707C89.764 70.0792 89.7433 70.2171 89.7434 70.3274C89.7436 70.6619 90.3161 70.6392 90.4571 70.4293Z" fill="#444444"/>
<path d="M84.2985 72.7898C84.3102 72.7884 86.1505 72.5691 86.1596 72.568C86.1501 72.5691 86.093 72.567 86.1752 72.5633C86.2229 72.5612 86.2714 72.5647 86.3192 72.5653C86.4709 72.5675 86.6228 72.5632 86.7739 72.549C86.825 72.5442 87.3717 72.4891 87.3715 72.4838C87.3714 72.4824 87.3657 72.4816 87.3578 72.4811C88.0427 72.4674 87.9502 72.4693 89.2642 72.2419C93.234 71.5552 92.5611 71.6797 96.5036 70.8939C97.1816 70.7587 97.8752 70.6442 98.5366 70.4415C100.593 69.8113 102.077 68.8345 102.497 66.7145C102.762 65.3755 102.516 62.9839 101.514 60.9904C100.623 59.2176 99.2754 57.7852 97.4772 56.9634C95.2853 55.9617 91.9663 56.1702 89.9664 57.9109C89.707 58.1366 89.237 58.6318 89.1377 58.8723C89.1162 58.9244 89.0774 59.0687 89.0628 59.1234C88.9959 59.3817 89.0349 59.2253 89.0334 59.231C88.8725 59.6588 88.9448 59.7978 89.0083 60.0829C89.0716 60.367 89.592 60.3848 89.7822 60.2598C90.1958 59.9881 89.9723 60.192 90.4939 59.747C90.4939 59.747 90.5322 59.7163 90.7561 59.5678C91.0968 59.3418 91.2262 59.0341 92.1745 58.5643C92.2281 58.5377 92.5474 58.3872 92.5479 58.387C92.3782 58.4506 92.8765 58.2446 93.2573 58.1366C93.8948 57.9557 94.4949 57.9413 95.0623 57.9988C95.6752 58.0609 96.6758 58.445 96.0981 58.2284C96.2957 58.3025 96.6124 58.4124 97.069 58.6564C97.1346 58.6914 97.2803 58.7973 97.1075 58.6749C97.4526 58.9196 97.6359 58.9832 98.14 59.4049C98.8697 60.0153 99.5717 60.9238 100.002 61.6798C99.9243 61.5377 101.333 63.9453 101.238 65.9347C101.209 66.561 101.079 67.1855 100.724 67.7017C100.724 67.7017 100.485 68.0381 100.086 68.355C99.8569 68.5386 99.4034 68.801 98.8646 68.9904C98.2745 69.1978 97.7796 69.2894 97.4898 69.3556C97.5169 69.352 97.4214 69.3707 97.3609 69.3832C96.8593 69.4872 96.5347 69.5388 94.2186 69.9394C92.2176 70.2856 90.361 70.6599 88.4797 71.0349C88.048 71.1209 87.5927 71.1796 87.1753 71.3195C87.0214 71.3711 86.8768 71.4388 86.7194 71.4811C86.5261 71.533 86.3263 71.5754 86.1373 71.6416C85.9728 71.6993 85.822 71.7749 85.652 71.8186C85.4926 71.8596 84.1563 72.2031 83.988 72.2463C83.8342 72.2859 83.703 72.4419 83.7903 72.5958C83.8852 72.7629 84.1222 72.8108 84.2985 72.7898ZM93.4025 58.0934C93.4044 58.0821 93.479 58.0679 93.5607 58.0556C93.5085 58.0663 93.4031 58.09 93.4025 58.0934ZM99.2449 68.8443C99.2423 68.8456 99.2405 68.8464 99.2405 68.8464C99.2405 68.8464 99.2422 68.8455 99.2449 68.8443Z" fill="#444444"/>
<path d="M111.748 66.8779C111.8 66.9062 111.81 66.9129 111.748 66.8779V66.8779Z" fill="#444444"/>
<path d="M105.896 68.5319C106.261 68.0542 106.529 67.8319 106.722 67.6952C106.05 68.5993 105.924 69.063 105.87 69.764C105.599 73.3315 109.413 75.297 112.206 74.1678C114.064 73.4165 115.392 71.4778 115.102 69.446C114.81 67.403 113.107 65.6759 111.049 65.3525C109.368 65.0884 107.775 65.5062 106.464 66.6179C105.958 67.0472 105.907 67.2557 105.814 67.4104C105.722 67.5644 105.532 67.7722 105.291 68.3294C105.168 68.6158 105.756 68.7161 105.896 68.5319ZM107.505 67.1677C107.91 66.904 108.339 66.6859 109.026 66.5219C109.109 66.5026 109.097 66.5053 108.988 66.53C109.07 66.4872 109.211 66.4888 109.303 66.475C109.408 66.4591 109.512 66.442 109.618 66.4293C109.702 66.419 109.788 66.411 109.873 66.4053C109.859 66.4028 109.858 66.4028 109.875 66.4051C109.899 66.4035 109.92 66.4036 109.95 66.408C110.197 66.4008 110.397 66.4195 110.52 66.439C110.549 66.441 110.56 66.4401 110.528 66.4405C110.747 66.4807 110.972 66.579 111.184 66.6135C111.178 66.6124 111.173 66.6116 111.167 66.6107C111.373 66.6812 111.642 66.821 111.748 66.8781C111.738 66.8726 111.727 66.8664 111.714 66.8588C111.816 66.8847 111.939 67.0006 112.024 67.0611C112.179 67.1717 112.328 67.2921 112.469 67.4204C112.769 67.7215 113.008 67.9955 113.237 68.3556C113.752 69.168 113.998 70.2764 113.661 71.2486C113.195 72.5965 112.032 73.5354 110.871 73.7062C110.601 73.746 110.363 73.7555 110.001 73.7143C110.001 73.7143 109.891 73.7007 109.737 73.6673C108.062 73.3034 106.823 71.85 106.761 70.0836C106.744 69.5948 106.832 69.1155 106.905 68.6349C106.981 68.1355 107.194 67.6834 107.495 67.2784C107.528 67.234 107.526 67.1965 107.505 67.1677Z" fill="#444444"/>
<path d="M133.024 78.8897C135.353 79.3823 136.043 78.9278 137.765 79.4627C137.907 79.5069 138.132 79.4724 138.22 79.3423C138.309 79.2105 138.209 79.0817 138.081 79.0228C137.246 78.6397 136.632 78.5635 136.143 78.4024C135.043 78.0402 133.119 78.1697 131.725 76.9413C131.731 76.9475 131.736 76.9524 131.735 76.9531C131.721 76.9705 131.312 76.446 131.28 76.394C131.256 76.3557 131.256 76.3542 131.248 76.3384C131.035 75.897 130.842 75.3841 131.107 74.2498C131.244 73.6666 131.565 72.8483 131.764 72.3345C132.481 70.4791 132.009 71.5414 133.369 68.3754C134.226 66.3816 134.273 66.6734 134.156 66.2768C134.089 66.05 133.737 66.0698 133.575 66.1441C133.476 66.1895 133.362 66.2334 133.285 66.3138C133.254 66.3451 132.002 68.102 131.162 69.762C130.443 71.1845 129.097 73.9935 129.3 75.5614C129.538 77.4048 131.243 78.5128 133.024 78.8897ZM132.339 77.3868C132.317 77.383 132.29 77.3642 132.267 77.3462C132.286 77.357 132.34 77.3869 132.339 77.3868Z" fill="#444444"/>
<path d="M142.287 79.5735C142.504 79.4128 142.625 79.1838 142.766 78.9589C142.946 78.6702 142.929 78.6124 143.601 76.8573C144.308 75.0145 144.022 75.8244 144.39 74.391C144.422 74.264 144.261 73.9632 143.793 73.8967C143.505 73.8557 143.147 73.9172 142.991 74.1913C142.113 75.7354 142.484 75.0354 141.961 76.247C140.948 78.5973 141.065 78.1966 140.912 78.9404C140.754 79.7075 141.794 79.9389 142.287 79.5735Z" fill="#444444"/>
<path d="M145.048 71.9663C145.277 71.8253 145.297 71.6525 145.34 71.4869C145.356 70.6338 143.754 70.341 143.149 70.8752C142.92 71.0162 142.9 71.1891 142.858 71.3546C142.841 72.2077 144.443 72.5005 145.048 71.9663Z" fill="#444444"/>
<path d="M145.299 81.5514C145.578 81.7276 145.867 81.9168 146.175 82.0379C146.524 82.1751 146.897 82.3212 147.266 82.3931C148.546 82.6426 150.425 82.6488 151.128 81.5582C151.429 81.0915 151.486 80.4936 151.412 79.9521C151.163 78.1188 149.007 76.9784 149.901 75.332C149.962 75.2561 150.021 75.1916 150.103 75.1218C150.19 75.0877 150.229 75.002 150.454 74.9263C150.506 74.909 150.581 74.9043 150.626 74.8763C150.241 74.9595 150.753 74.8418 150.86 74.8371C150.688 74.8386 151.012 74.8301 150.89 74.8363C151.12 74.8515 151.164 74.8881 151.343 74.9696C151.335 74.9555 151.347 74.9719 151.365 74.9797C151.402 74.9962 151.409 75.0027 151.403 75.003C151.485 75.0486 151.551 75.1051 151.643 75.1663C152.055 75.4394 152.214 75.4972 153.027 76.4949C153.149 76.6449 153.577 76.6732 153.604 76.4238C153.665 75.8537 153.467 75.3002 153.175 74.8174C152.826 74.2408 152.135 73.8807 151.496 73.7179C149.989 73.3337 148.494 74.0962 148.16 75.1607C147.732 76.5284 148.734 77.6548 149.543 78.6368C149.921 79.096 150.28 79.5882 150.381 80.1872C150.452 80.6107 150.279 81.0392 150.018 81.2396C150.009 81.2465 149.926 81.2978 149.863 81.3305C149.859 81.331 149.802 81.3566 149.79 81.3611C149.642 81.4128 149.489 81.4326 149.355 81.4325C149.337 81.4343 149.315 81.4406 149.347 81.4324C148.768 81.4267 147.549 81.2559 147.421 81.2481C146.899 81.2163 145.848 81.1201 145.623 81.0929C145.491 81.0771 145.302 81.1287 145.227 81.2432C145.158 81.3478 145.188 81.4814 145.299 81.5514ZM150.938 74.8306C150.938 74.8305 150.938 74.8305 150.937 74.8305C150.942 74.8295 150.943 74.8292 150.938 74.8306ZM150.93 74.8319C150.93 74.8319 150.931 74.832 150.931 74.8321C150.917 74.8347 150.911 74.8352 150.93 74.8319Z" fill="#444444"/>
<path d="M156.575 76.5608C156.701 76.6401 156.827 76.7362 156.962 76.7988C157.096 76.861 157.248 76.8996 157.388 76.9491C157.712 77.0641 158.035 77.1921 158.365 77.2904C158.915 77.4545 159.478 77.586 160.035 77.7307C159.608 78.7463 159.296 79.8205 159.048 80.8841C158.793 81.9792 158.665 83.222 159.127 84.285C159.735 85.6859 161.079 86.3719 162.601 86.5059C163.077 86.5477 163.525 86.4727 163.985 86.3622C164.93 86.1711 164.987 86.0525 165.465 85.8513C166.049 85.6052 166.481 85.3805 167.042 85.0863C167.201 85.0028 167.224 84.8191 167.097 84.6981C166.954 84.562 166.7 84.5242 166.517 84.5904C165.778 84.8576 164.995 85.1376 164.546 85.1925C163.547 85.3146 163.71 85.3102 163.411 85.2813C162.567 85.1998 161.854 85.0227 161.359 84.3329C161.328 84.2896 161.29 84.1982 161.249 84.1619C160.43 82.599 161.372 79.86 161.992 78.196C162.554 78.3205 163.706 78.49 163.809 78.4935C163.904 78.4968 164.007 78.4708 164.1 78.4824C164.189 78.4934 164.066 78.4904 164.063 78.4896C164.1 78.4983 164.354 78.5115 164.46 78.5106C164.643 78.5091 164.701 78.5247 165.971 78.7245C166.138 78.7509 166.4 78.748 166.483 78.5639C166.568 78.3773 166.357 78.2646 166.215 78.2185C166.214 78.2184 164.939 77.8054 164.938 77.8052C164.876 77.7771 164.579 77.6118 164.522 77.602C164.495 77.5974 164.488 77.5981 164.491 77.6011C164.413 77.5606 164.343 77.4957 164.263 77.461C164.079 77.381 163.872 77.3317 163.681 77.2693C163.032 77.0577 163.171 77.0838 162.492 76.916C162.727 76.3373 162.987 75.7689 163.273 75.2135C163.416 74.9367 163.587 74.6687 163.697 74.3774C163.803 74.0944 163.917 73.8142 164.037 73.5364C164.212 73.1289 163.381 72.838 163.011 73.1929C161.979 74.182 162.044 74.1798 161.55 74.9409C161.225 75.4424 160.92 75.9572 160.637 76.4833C158.765 76.0683 158.892 76.1067 157.997 75.9889C157.208 75.8853 157.43 75.9034 156.866 75.9337C156.553 75.9505 156.21 76.3312 156.575 76.5608ZM163.645 85.2993C163.645 85.3001 163.64 85.3003 163.631 85.3C163.64 85.2995 163.645 85.2992 163.645 85.2993Z" fill="#444444"/>
<path d="M42.8168 85.1494C42.9454 85.2512 43.0646 85.3536 43.2207 85.4134C43.783 85.6286 43.3918 85.496 50.5456 87.3236C48.9381 88.869 47.5394 90.554 46.4028 92.2285C46.1221 91.7411 45.8414 91.2536 45.5607 90.7662C44.5205 88.9599 44.3711 88.7332 44.1544 88.455C43.9479 88.19 43.3394 88.3218 43.4362 88.6133C43.5403 88.9263 43.6329 89.1385 44.5857 90.981C44.9924 91.7674 45.3989 92.5536 45.8056 93.34C46.0138 93.7427 46.6972 93.7681 46.9478 93.4008C46.9661 93.374 46.9874 93.3444 47.0044 93.3177C47.0499 93.2589 47.1078 93.1824 47.1501 93.121C47.257 92.9659 47.3164 92.8718 47.5465 92.5451C47.6174 92.4443 47.6653 92.3776 47.6887 92.3448C47.7029 92.3249 47.6935 92.338 47.7098 92.3154C48.547 91.1599 49.4773 90.0353 50.3379 89.1051C50.8031 88.6023 51.2848 88.1139 51.7801 87.6391C52.0333 87.7038 52.3117 87.775 52.6229 87.8546C52.3344 88.8366 50.5243 94.997 50.2429 95.9546C44.0662 94.4694 43.3521 94.4478 42.7086 93.8624C42.712 93.8634 42.6427 93.7918 42.6344 93.7822C42.5551 93.6915 42.5121 93.623 42.4927 93.5946C42.4201 93.4886 42.3088 93.2121 42.2849 92.9491C42.2252 92.295 42.3893 91.7606 42.8419 89.8315C42.9903 89.1989 43.5836 86.7061 43.6927 85.8567C43.7309 85.5595 43.0142 85.4638 42.9143 85.7455C42.6587 86.466 42.0791 88.8123 41.9323 89.4103C41.3663 91.717 41.244 92.1066 41.2442 92.6892C41.2445 93.8278 41.9089 94.5076 42.9909 94.9024C43.4053 95.0536 43.1843 95.0174 50.5051 96.794C50.7001 96.8414 51.1366 96.8213 51.2101 96.5731C52.0847 93.6179 52.9539 90.6811 53.8205 87.753C53.8976 87.4925 53.6815 87.331 53.4452 87.2702C53.1131 87.1848 52.7811 87.0991 52.449 87.0136C53.0783 86.4389 53.7263 85.8843 54.3879 85.3492C54.4762 85.2778 55.1089 84.7339 55.1096 84.7331C55.1633 84.6814 55.1898 84.6125 55.2368 84.5569C55.2421 84.5485 55.2475 84.54 55.2529 84.5315C55.2531 84.5368 55.2532 84.5421 55.2533 84.5473C55.2821 84.5245 55.3112 84.502 55.3401 84.4794C55.7751 84.14 56.2504 83.7897 56.7033 83.4687C56.9696 83.28 56.5886 83.0142 56.3007 83.173C55.7347 83.4851 55.2635 83.7669 54.7757 84.0764C54.7222 84.1104 54.6693 84.1493 54.6138 84.1798C54.623 84.1747 54.6825 84.1569 54.5934 84.1884C54.2066 84.3252 54.1447 84.415 53.8012 84.6328C53.2052 85.0107 52.1703 85.8518 51.5079 86.4364C51.4106 86.5224 51.3138 86.6091 51.2175 86.6964C43.7131 84.7631 44.1586 84.8575 43.6998 84.7889C43.3459 84.7359 43.2942 84.7566 42.9844 84.7879C42.7891 84.8077 42.6259 84.9981 42.8168 85.1494ZM43.0348 94.1026C42.9613 94.0633 43.0177 94.0922 43.0348 94.1026V94.1026Z" fill="#444444"/>
<path d="M39.4124 101.667C39.4121 101.729 39.4505 101.775 39.5059 101.805C39.3461 102.391 39.19 102.979 39.0353 103.566C38.2788 106.44 38.2231 106.546 38.173 107.057C38.125 107.547 38.2048 108.071 38.5362 108.457C38.9442 108.932 39.5614 109.114 40.1367 109.299C42.588 110.088 43.5159 110.381 48.0466 111.82C48.2954 111.899 48.649 111.803 48.7123 111.53C49.2707 109.119 49.72 107.199 50.9059 102.118C50.9477 101.939 50.6778 101.807 50.5482 101.775C50.205 101.693 49.8728 101.613 49.5512 101.536C49.8737 101.185 50.1962 100.834 50.5035 100.47C50.9645 99.9239 52.1153 98.894 52.638 98.4438C52.7237 98.37 52.6586 98.2603 52.5814 98.2158C52.4876 98.1618 52.3259 98.1428 52.2329 98.2109C51.4904 98.754 50.788 99.3379 50.0897 99.9353C49.9184 100.082 49.727 100.211 49.5554 100.359C49.4703 100.433 48.8746 100.978 48.5644 101.298C43.675 100.122 41.583 99.6174 41.4506 99.5916C40.8199 99.4685 40.1327 99.4591 39.7336 99.9666C39.6776 100.038 39.71 99.9898 39.7179 99.9811C39.2425 100.505 39.4151 101.121 39.4124 101.667ZM40.8219 100.193C40.8222 100.193 40.816 100.193 40.8073 100.193C40.8074 100.191 40.8076 100.19 40.8077 100.188C40.8136 100.189 40.8185 100.19 40.8219 100.193ZM39.425 105.877C39.5097 105.539 40.7844 100.487 40.8072 100.194C40.8654 100.195 40.9224 100.196 40.9812 100.201C41.0092 100.203 41.0583 100.219 41.0876 100.214C41.2618 100.242 40.8991 100.158 48.027 101.873C46.3422 103.717 45.0199 105.607 43.9002 107.642C43.5814 106.747 42.2736 103.031 41.8735 102.218C41.7236 101.914 41.1101 101.993 41.1774 102.306C41.3392 103.059 42.1778 105.439 42.8564 107.415C43.0222 107.898 43.1879 108.38 43.3536 108.863C43.4117 109.032 43.6449 109.117 43.8073 109.121C43.9812 109.125 44.1974 109.081 44.285 108.913C44.3891 108.714 44.509 108.52 44.6177 108.323C45.2628 107.153 46.0428 105.937 46.7404 104.959C46.8464 104.81 46.9789 104.629 47.0905 104.48C47.7135 103.645 48.4349 102.772 49.0251 102.113C49.2845 102.176 49.5524 102.24 49.8294 102.307C47.9247 110.469 48.1205 109.632 47.797 111.007C39.3569 108.305 40.0945 108.578 39.6775 108.368C39.5123 108.251 39.4942 108.245 39.4169 108.153C39.3812 108.111 39.347 108.057 39.3189 108.023C39.3084 108 39.191 107.786 39.1691 107.523C39.1232 106.975 39.2981 106.384 39.425 105.877Z" fill="#444444"/>
<path d="M34.7645 122.969C34.7564 123.668 35.2206 123.956 35.8941 124.145C35.914 124.15 42.9639 126.107 43.3119 126.168C43.9264 126.275 44.5767 126.247 45.0694 125.824C45.6243 125.347 45.6676 124.625 46.0294 122.552C46.7724 118.295 46.9036 117.943 46.7332 117.228C46.6042 116.687 46.1879 116.295 45.6761 116.097C45.581 116.061 45.4846 116.029 45.3874 116.001C45.4083 115.971 45.4291 115.942 45.45 115.913C45.6513 115.63 45.8259 115.33 46.0269 115.047C46.2344 114.755 46.442 114.463 46.6495 114.171C46.7092 114.087 46.5838 114 46.5209 113.979C46.4332 113.95 46.2852 113.947 46.2199 114.027C44.9226 115.634 45.4496 114.921 44.7144 115.84C35.6258 113.901 38.556 114.524 37.1006 114.227C36.8705 114.181 36.5033 114.221 36.457 114.508C36.418 114.749 36.3789 114.99 36.3399 115.232C36.321 115.348 36.2618 115.519 36.3085 115.633C36.3481 115.731 36.5024 115.976 36.52 115.997C36.2474 116.828 36.0284 117.69 35.142 121.25C34.8103 122.582 34.7677 122.701 34.7645 122.969ZM35.7467 123.336C35.7278 123.313 35.7383 123.323 35.7467 123.336V123.336ZM35.8872 123.47C35.8975 123.477 35.9034 123.482 35.8872 123.47V123.47ZM37.2298 115.676C37.2801 115.572 37.2701 115.537 37.3747 114.964C40.1296 115.558 42.9053 116.117 44.2555 116.402C42.9751 117.886 40.9732 120.603 39.4428 122.662C39.2727 122.891 39.0408 123.236 38.8597 123.401C38.8547 123.405 38.8068 123.44 38.8121 123.438C38.8054 123.442 38.7987 123.447 38.7921 123.451C38.5542 123.266 38.4996 122.811 37.9539 120.365C37.6069 118.809 37.5863 118.674 37.4848 118.378C37.4375 118.24 37.0723 118.218 37.0797 118.392C37.0909 118.657 37.0743 118.522 37.6531 122.137C37.7622 122.819 37.7918 123.307 38.0722 123.654C38.4001 124.06 39.1152 124.184 39.6719 123.634C39.8502 123.458 43.0184 119.364 44.2226 117.662C44.6109 117.113 44.3474 117.52 44.9934 116.564C45.6999 116.739 45.8778 117.216 45.8396 117.94C45.8148 118.409 45.8376 118.154 44.9556 123.249C44.7344 124.527 44.6915 125.11 44.2592 125.48C44.2422 125.492 44.2147 125.511 44.2163 125.51C44.192 125.525 44.1728 125.533 44.1432 125.553C44.0972 125.568 44.0625 125.582 44.0245 125.593C44.0315 125.591 44.04 125.589 44.0505 125.587C44.0498 125.589 44.0357 125.592 44.0184 125.594C43.7266 125.672 43.1991 125.516 36.0652 123.54C36.0295 123.53 35.9481 123.499 35.8754 123.461C35.873 123.459 35.8096 123.409 35.8094 123.412C35.7508 123.347 35.7243 123.309 35.6935 123.193C35.6934 123.193 35.6806 123.124 35.6805 123.132C35.6679 123.023 35.6758 122.909 35.6898 122.801C35.7685 122.19 36.9963 117.519 37.2298 115.676ZM38.7576 123.469C38.7082 123.476 38.7366 123.474 38.7576 123.469V123.469Z" fill="#444444"/>
<path d="M44.025 125.593C44.0209 125.594 44.0172 125.595 44.0142 125.595C44.0185 125.595 44.0183 125.595 44.025 125.593Z" fill="#444444"/>
<path d="M32.9388 136.848C32.6684 136.128 32.9537 135.055 33.171 133.931C33.4376 132.552 33.8623 130.416 33.8952 129.911C33.9143 129.617 33.3237 129.569 33.2392 129.822C33.0249 130.464 32.1259 135.04 32.0863 135.26C31.6186 137.855 32.9788 137.954 34.23 138.196C35.3344 138.409 36.4406 138.613 37.5462 138.82C41.0498 139.475 40.9804 139.485 41.4341 139.311C41.5004 139.286 41.5888 139.19 41.5194 139.115C41.3654 138.948 41.3287 138.858 40.7752 138.744C38.8675 138.353 33.7822 137.465 33.4449 137.361C33.3958 137.338 33.2693 137.277 33.2693 137.277C33.1966 137.22 33.0988 137.168 32.9786 136.944C32.9848 136.953 32.9441 136.863 32.9388 136.848Z" fill="#444444"/>
<path d="M99.606 106.929C153.528 118.294 147.543 117.025 158.132 119.021C158.333 119.059 158.492 118.838 158.241 118.78C145.569 115.825 142.314 115.184 83.4331 102.788C76.409 101.309 69.3962 99.701 62.3362 98.4033C61.8697 98.3176 61.5 98.8254 62.0835 98.9643C67.7995 100.325 67.8181 100.23 99.606 106.929Z" fill="#444444"/>
<path d="M59.0232 113.463C71.2472 116.169 89.9204 118.547 143.233 131.992C146.311 132.768 149.404 133.494 152.478 134.281C153.235 134.475 153.993 134.668 154.752 134.856C154.965 134.909 155.131 134.68 154.872 134.603C124.28 125.555 72.0226 114.812 59.2212 113.045C58.8806 112.998 58.574 113.364 59.0232 113.463Z" fill="#444444"/>
<path d="M64.4568 130.313C73.6695 131.956 83.6921 133.906 92.8153 135.788C117.092 140.796 143.739 147.282 151.672 149.341C151.842 149.385 151.977 149.197 151.769 149.14C142.912 146.681 127.612 142.378 95.4287 135.67C87.9517 134.112 63.1678 129.115 55.8901 128.327C55.5956 128.295 55.4569 128.632 55.7908 128.708C58.6548 129.353 61.5672 129.798 64.4568 130.313Z" fill="#444444"/>
<path d="M45.288 130.249C45.3652 130.168 45.4783 130.101 45.5677 130.033C45.735 129.905 45.9002 129.775 46.064 129.642C46.2122 129.522 45.9541 129.254 45.6436 129.401C45.2635 129.581 44.8975 129.802 44.5382 129.966C44.1776 130.13 43.841 130.367 43.5107 130.584C43.3626 130.681 43.2164 130.782 43.0716 130.885C42.5277 130.694 41.8819 130.6 41.3039 130.479C34.0137 128.957 33.9749 129.012 33.4659 129.065C33.3287 129.079 33.294 129.221 33.4094 129.291C33.7513 129.499 33.7398 129.572 40.4322 130.951C41.443 131.159 42.0374 131.271 42.4232 131.367C40.3235 132.989 38.5551 134.81 37.1945 136.593C36.8936 136.003 36.1201 134.487 35.8005 133.908C35.6118 133.566 35.5022 133.532 35.2349 133.455C35.1456 133.429 35.0185 133.447 34.9506 133.515C34.8588 133.607 34.7965 133.681 34.8192 133.821C34.8558 134.045 34.8384 133.999 36.5492 137.656C36.7367 138.057 37.4341 138.009 37.5926 137.802C39.4432 135.38 41.17 133.65 43.3268 131.87C43.5229 132.184 43.4275 132.502 43.3354 132.881C41.6584 139.797 41.9783 138.282 41.9605 139.185C41.9557 139.431 42.3763 139.443 42.4678 139.253C42.873 138.415 42.4787 139.839 44.0972 133.275C44.2348 132.717 44.4599 132.158 44.0933 131.589C44.0451 131.514 43.9892 131.446 43.9272 131.382C43.9944 131.328 44.0618 131.275 44.1293 131.221C45.2994 130.292 45.0584 130.49 45.288 130.249Z" fill="#444444"/>
<path d="M49.3559 70.3142C50.5439 70.4535 51.7274 70.63 52.9124 70.7961C52.9349 70.8088 52.9649 70.8197 53.0038 70.8276C58.4875 71.9389 51.3062 70.6949 68.3607 73.7605C71.7952 74.547 81.2634 76.6927 84.6543 77.46C83.6487 77.2849 82.6431 77.1102 81.6375 76.9357C61.3287 72.8622 60.005 72.56 56.8468 72.2079C56.5603 72.176 56.4595 72.4449 56.7602 72.5345C57.3193 72.7012 57.882 72.8557 58.4473 73.0011C57.7179 72.9068 56.9878 72.8238 56.257 72.7559C56.0595 72.7376 55.9739 72.9314 56.1955 72.9877C60.7882 74.1537 69.2325 75.2944 74.4533 76.3558C136.491 88.9695 115.691 84.4902 132.936 88.3221C140.401 89.981 147.872 91.599 155.349 93.2018C155.495 93.2331 155.612 93.0874 155.43 93.044C150.651 91.9075 145.868 90.7858 141.084 89.6745C143.331 90.0736 145.581 90.4593 147.828 90.8619C148.07 90.9053 148.273 90.6668 147.963 90.5972C124.263 85.2789 121.136 85.0912 109.923 82.5437C127.662 85.7545 141.022 88.3546 148.499 89.7885C151.925 90.8397 155.334 91.979 158.807 92.8581C158.946 92.893 159.151 92.7532 158.95 92.6731C157.073 91.9223 155.143 91.2844 153.2 90.6859C156.784 91.366 160.369 92.0356 163.96 92.6817C164.086 92.7043 164.191 92.5808 164.03 92.5443C158.98 91.3975 153.914 90.3219 148.838 89.2922C148.857 89.2497 148.832 89.199 148.734 89.1702C145.264 88.1454 141.778 87.173 138.28 86.2402C141.747 86.842 145.217 87.4226 148.693 87.9557C148.887 87.9853 149.056 87.794 148.802 87.7419C146.852 87.3408 144.897 86.9553 142.94 86.5804C143.018 86.4827 142.982 86.3363 142.761 86.2844C137.418 85.0293 134.729 84.4906 121.685 82.0122C105.463 78.0832 68.9223 70.5431 57.8405 69.0199C56.9613 68.8991 56.0829 68.8504 55.204 68.7208C55.0571 68.6991 54.9898 68.862 55.1579 68.8946C55.8982 69.0385 56.6111 69.2564 57.3468 69.4119C58.9315 69.7468 63.1585 70.5002 64.2623 70.7017C70.0546 71.7587 76.3093 72.9599 82.0621 74.096C70.5797 72.278 74.4541 73.1253 65.9157 71.5611C59.3894 70.3655 57.6927 70.1422 56.4264 70.0197C56.1245 69.9905 56.0095 70.2743 56.3341 70.3674C57.134 70.5967 57.9464 70.7864 58.7613 70.9649C57.2789 70.8071 58.6323 71.0062 53.7445 70.0362C53.5572 69.999 53.4044 70.1797 53.6407 70.2398C54.0899 70.3541 54.5394 70.4674 54.989 70.5801C53.1127 70.4117 51.2376 70.3497 49.3593 70.2215C49.264 70.2151 49.2625 70.3032 49.3559 70.3142ZM130.278 84.8242C137.072 86.4992 137.5 86.5958 142.543 88.0378C135.702 86.6974 128.848 85.422 121.996 84.1514C89.5688 78.1391 105.465 81.5083 81.7222 76.1508C111.88 81.5419 122.037 83.3505 130.278 84.8242ZM92.726 76.4636C96.0367 77.0626 100.043 77.8091 103.448 78.5582C91.8284 76.3565 81.1682 74.3725 92.726 76.4636ZM86.8586 76.4515C63.9019 72.3276 69.932 73.4728 63.2815 72.0277C66.5193 72.4224 62.6656 71.8719 86.8586 76.4515Z" fill="#444444"/>
</svg>
